<svg xmlns="http://www.w3.org/2000/svg" viewBox="0 0 300 300"><defs><style>.a{fill:#a0a0a0;}.b{fill:#fff;}</style></defs><title>tapp</title><circle class="a" cx="150" cy="150" r="150"/><circle class="b" cx="250.5" cy="169.5" r="12.5"/><path class="b" d="M200,131.47A25.77,25.77,0,0,1,217,125c14.91,0,27,13,27,29s-12.09,29-27,29a25.77,25.77,0,0,1-17-6.47V198H184V124h16v7.47ZM215,169a15,15,0,1,0-15-15A15,15,0,0,0,215,169Z"/><path class="b" d="M144,130.47A25.77,25.77,0,0,1,161,124c14.91,0,27,13,27,29s-12.09,29-27,29a25.77,25.77,0,0,1-17-6.47V197H128V123h16v7.47ZM159,168a15,15,0,1,0-15-15A15,15,0,0,0,159,168Zm-50,7.53A25.77,25.77,0,0,1,92,182c-14.91,0-27-13-27-29s12.09-29,27-29a25.77,25.77,0,0,1,17,6.47V123h16v59H109v-6.47ZM94,168a15,15,0,1,0-15-15A15,15,0,0,0,94,168Z"/><path class="b" d="M61,124V108H45v16H37v12h8v46H61V136h7V124H61Z"/></svg>
