<svg xmlns="http://www.w3.org/2000/svg" viewBox="0 0 354 115"><defs><style>.a{fill:#a0a0a0;}</style></defs><title>virry2</title><path class="a" d="M71.53,1.75L72.38,2V2.38a4.44,4.44,0,0,1-2.25,4.21l-0.28-.28H68.72V6.87a9.13,9.13,0,0,1,2,3.65L70.41,12v1.54l0.28,0.28q0,0.63,1.41.63l0.28,0.28v0.63H71a6.16,6.16,0,0,0-3.1-1.54H66.46l-0.84.91V15L67,14.73h1.13q0,2.45-3.1,5.12v1.54L65.62,22H67q1.13,0,1.41-3.93l0.28-.35h0.56l0.56,0.63-0.56,4.49v0.63Q71,23.7,71,24.4v0.28l-1.69,3.65a1.37,1.37,0,0,1-1.13-.91,3.57,3.57,0,0,1,.84-2.1V24.12l-3.38-.35H64.77l0.28,1.54-1.69,5.75v0.28q1.41,0,1.41.63l-1.13,1.47V33.8a4.22,4.22,0,0,1,1.13,3q0,1.4-2.25,2.66a11.81,11.81,0,0,1-3.94,5.75L58.3,47.05V48h0.28q4.79-5,5.91-5.47,0.84,0,.84-0.56V40.39h0.28l1.13,1.19v0.35q-0.56,1.12-3.94,3.3v0.91h1.13q0,2.66-3.94,3v2.45a0.91,0.91,0,0,0,1.13.91q-0.77,8.7-2,8.7H57.73v0.63l0.56,0.91V64H57.73L56,63l-1.13,1.54v0.91H56q3.94,0,3.94,2.1l-0.28.28H59.42L58.3,67.6Q57,67.6,55.48,73v0.63l1.69,1.82v0.28q-2.53,0-2.53,3.37Q54,84.22,52.95,84.22L52.1,82.67l0.84-2.73V79.66q-0.35-3-1.13-3a3.68,3.68,0,0,1-2.25.63v0.56l1.13,2.1L49.28,84.5h0.28q3.66,0.7,3.66,3.3A5,5,0,0,1,51,91.72l-2.25-.56v0.28l1.41,3.3H49.85l-1.13-.28H47.59l-2.53.28-2-.84H42.53v0.28q0,4.49,1.13,4.49h0.28q0.56,0,.56-1.19h0.28q0.92,0,1.69,3.65l-0.28,1.82h0.28q0.7-.14,1.69-3.93h0.28L49,101.4a21.77,21.77,0,0,0-1.69,8.13h1.13v0.35q0,1.4-4.51,2.1v0.63q0,0.56.84,0.56v0.63L43.65,115H43.37a3.36,3.36,0,0,0-2.25-1.19H38.86l-0.28.28H38.3L38,113.81v-0.35l0.28-1.19L38,111.35H35.48l-2.53,2.45H32.39a9.15,9.15,0,0,0-1.69-4.28l-0.28-2.1q0-2.73,2.25-7.5L31,99.29H28.73l-2.82.63V99.57l2-5.12Q27,93.4,23.94,93a29.25,29.25,0,0,0-2-7.29,2.35,2.35,0,0,1,2.25-1.47l0.56,0.56v2.73h0.56l0.56-.63v-3.3l-2.25-2.1q-0.21-7.22-1.41-7.22H21.68l-0.56.56L22,79.66l-0.84,2.73,0.56,0.91-0.28.28H19.71L18.87,83A11.05,11.05,0,0,0,20,79.1a2.74,2.74,0,0,0-1.69-1.82L18,77.55v0.28l0.28,0.91Q18,81.2,17.18,81.2q-2.53-4.91-2.53-6.94A8.81,8.81,0,0,0,16.33,70q-0.42-3.93-1.41-3.93-0.42,0-.84,1.26l-0.28.28H13.24V65.77a18.39,18.39,0,0,0-1.41-7.85,2.55,2.55,0,0,0,1.41-1.47V54.27q0-1.19-3.66-2.38L7,44.32,6.48,35.55,6.2,35.27l-1.41.63V34.64a12.79,12.79,0,0,1,1.13-5.4Q3.1,25.8,3.1,19.84l-0.84-.91a5.88,5.88,0,0,0,1.41-3.58v-2.1q0-2.1-2.82-2.1-0.63,0-.84-1.54l0.28-.28H0.56L1.41,9.89H2l0.28-.28Q3,9.61,5.35,12l1.41-2.1H7V12H7.6q0.42,0,2-3.3l1.13-.28a1.37,1.37,0,0,1,1.13.91V9.61l-1.41,1.54L11,11.71h0.84l1.69-1.82v2.73l2-.63a5.86,5.86,0,0,0,1.69,3.93,25.47,25.47,0,0,0-.84,7.29q0.56,0,.56-0.91L17.18,22h0.28L18,22.58v2.73l0.28,1.47h0.28q0.84,0,1.13-3h0.56l1.41,12.41L21.12,38h2l-0.28,3.58v0.35l0.56,0.56h0.56V41.58l0.28-1.47h0.56v2.73l0.84,3.3H23.94v0.91l2.53,5.47q0,2.66.84,2.66H27.6V54.27h0.28l0.56,0.63q-1.69,2-1.69,3,0.42,1.19.84,1.19h0.28q0.56,0,.56-0.91l0.28-.28H29l0.84,0.91v0.28a1.67,1.67,0,0,0-1.41,1.19v0.63h2v0.63H30.7l-0.56,4.49q0,1,3.1,5.47a8.35,8.35,0,0,0,1.13,3.65v3a6.36,6.36,0,0,1,2,5.12q1.06,0,2,2.1l-0.84,1.47v0.63H38.3q2.18,0,3.94-6.66,3.38-5.89,7-22.65,1.41-1.89,2-8.41l1.41-.91V48.59L52.1,44l1.69-6.94,1.69-.63V35.9a5.73,5.73,0,0,1-1.13-2.73q0-1.89,2.25-4.21V28.33H56V27.42h0.56V26.79L56,25.59q0.56-5.61,2.25-7.5V11.43q0.14-.7,2.25-1.54V9.61L59.7,8.7l3.94-2.38q1.62,0,5.91-4.28Zm-3.1,2.38L69,4.77h0.28q1.48,0,1.69-.91L70.41,3.3H69.28Zm7.89-.28h0.84a7.44,7.44,0,0,0,1.69,3.93q-1.06.14-2.25,3-0.77,0-2.25,2.45l-2-.35V12.62q3.1-3.16,3.1-5.75V6.31l-1.41.28H73.22v3l-0.84.91L71.81,9.33Q72.66,3.86,76.32,3.86ZM62.8,8.06V8.7l0.56,0.63h0.56l1.13-1.26V7.78l-0.56-.56Q62.8,7.36,62.8,8.06ZM17.46,11.71h0.28L18,13.25v0.28H17.46L16.9,12.9V12.34Zm58.86,2.73H76.6Q76,16.27,75.47,16.27V15.64Zm-4.51,3H72.1q0.84,0.28.84,1.82l-0.28,1.47q-0.56,0-1.13-2.38Zm-5.07,7.22,0.84,0.63-0.84,1.47v0.35q0,1.26,2.25,3.58H68.72a5.45,5.45,0,0,0-2.82-.84l-0.28.28-0.28-.28V29.52Q66.11,25.1,66.74,24.68ZM18.31,29.24v2.1L18.87,32h0.56V30.71l-0.28-1.47H18.31Zm-2,2.73v0.56l0.56,0.63h0.84V32.26l-0.84-.91ZM67,32v2.38h0.84l1.41-.28,0.28,0.28v0.28l-0.84.63H67.59a2.29,2.29,0,0,1-2-1.19Q66.18,32.19,67,32ZM55.2,33.45L56,34.36h0.56l0.56-.56V33.17l-0.56-.63H56ZM11.55,40.11a2,2,0,0,0,1.13,2.1H13V40.39l-0.84-.91Zm-0.28,9.68v0.28A1.56,1.56,0,0,0,13,48.24V48A1.56,1.56,0,0,0,11.26,49.79Zm15.49-.91L27,49.79l-0.28.28H26.47l-0.84-.91,0.28-.28h0.84ZM11.26,54h0.56v0.91L11,55.82H10.7V54.63Zm45.62,3a2.71,2.71,0,0,0,1.41,1.54h0.56V55.19H58.58Q57.73,55.19,56.89,57Zm4.51,0H62l0.84,0.91v0.63l-0.56.56H62l-1.13-1.19V57.64Zm-47,3.65,0.84,0.91h0.28l0.84-.91L15.77,60H14.93ZM18,62.13l-0.28.35v1.19H18L18.59,63V62.76Zm13.52,8.2-0.28,1.19q0.21,4.21,1.13,4.21h1.13V75.17a5.12,5.12,0,0,1-1.13-2.73v-2.1H31.54ZM15.49,73.91v1.54l0.84,0.91h0.28V74.54l-0.56-.63H15.49Zm9,2.73v0.28h0.28l1.69-.56V74.82l-0.56-.56A2.54,2.54,0,0,0,24.5,76.64Zm2.82,2.1v9q0,3.93,1.41,3.93,0.56,0,.56.91h0.84l0.56-.56V90.81q-2.53-1.19-2.53-7.5l-0.28-4.56H27.32Zm2.25,1.19v0.35l0.84,2.1H30.7l0.56-.63V80.85l-0.84-.91H29.57Zm4.22,9.4v1.82q0.35,0,1.41-4.56l1.69-.91V84.78l-0.56-.56H35.77Q33.79,85.27,33.79,89.34Zm16.05-3v1.82L51,89.34h0.56l0.84-.91V87.23H52.1L51,88.14H50.69l-0.28-1.82H49.85Zm-3.66,4.21v1.19H47l0.56-.56V90.25Zm-2.25,2.1V93l0.84,0.91h0.28l0.56-.63L44.5,92.07Zm-14.36,2.1L29,95.65V96l0.84,0.91h0.28l0.56-.63V95.09Zm-0.84,6.1L29,101.12h0.28q-0.7,2.31-1.69,2.73H27.32A4.38,4.38,0,0,1,28.73,100.84Zm16.33,4.77v1.54h0.56V105.6H45.06ZM121.94,5.33h0.56V5.89q-1.27,0-1.69,2.24h-0.56V7Zm-11.26.84Q111,9.82,111.8,9.82h0.84l1.13-1.12-1.13-1.4V7l3.66-.84q0,2.59,1.41,3.37a15.5,15.5,0,0,0-.84,4.77v2h0.56q0-2.88,3.1-6.45h0.28v0.56h0.28l-1.41,3.37L120,14a4.53,4.53,0,0,0,2.25-4.21V7.57h0.28q0.56,0,2,4.77h0.84l1.41-2.52q2.53,0,2.53-1.68h0.56q1.41,0.63,1.41,2.8v0.28q0,1.12-2.25,3.09,0,1.12-.56,1.12V14.87l0.84-3.65L129,10.94H128.7q-2,0-2.25,5l-0.28.28H125.6q0-2.17-1.41-2.52h-0.84q-1.69.14-1.69,0.84v0.56q1.41,0.07,1.41.84v0.84l-0.56.56-2.25-.56H120a6.71,6.71,0,0,0-2.82,1.4q-6.76.35-6.76,1.68a3.39,3.39,0,0,1,1.69,2.52,3.63,3.63,0,0,1-1.69,3.09v2.8a3.75,3.75,0,0,1-1.69,3.09l1.69,2.24q-2.53,2.31-2.53,4.49v0.28q0,0.84,3.1,1.4l0.84,0.84V41l-0.28-.28h-0.84l-0.56.56v0.28l1.13,1.4V43.2q-0.84,0-.84.56v1.4a3.22,3.22,0,0,1,.84,2h-0.56l1.41,3.09V51h-0.56v0.28L111.24,51h-0.56l-0.56.56v0.28q0,1.33,2.82,3.37-1.41.21-1.41,0.84v2.52l-1.13,3.65v0.84l0.84,1.12a5.08,5.08,0,0,0-1.69,3.65v1.4l0.84,0.84h0.28a2.57,2.57,0,0,1,1.41-2.52h0.84l0.28,0.84-1.69,2.24V71.8h2v0.28a3.78,3.78,0,0,1-2.25,1.68,5.44,5.44,0,0,1-1.41,2.8h2v0.28l-1.41,1.68v0.28l1.13,0.28-1.41,1.4v0.56h1.41q1.69,0.14,1.69.84v0.28q-1.69.28-1.69,0.84V83.3q0,1.33,2.82,5.33V89.2l-2,2h-0.28l0.28-.28V88.63a1.85,1.85,0,0,0-1.13-2l-0.84.84v0.56q0.7,0,1.41,8.7a7.2,7.2,0,0,1,1.13,4.21q2,0.35,2,3.65,2,0.28,2,.84v0.28q-1.48,0-2.82,4.49l-2.53.56h-1.41q0,1.68-3.94,1.68h-0.56l-4.51-.56a3.11,3.11,0,0,1-1.41,2.8H98.57l-1.13-.84H97.16l-0.84.56-2.82-.84L92.94,113H92.37l-2.82,2H89a4.5,4.5,0,0,0-2.53-1.12H80.54q-3.1,0-3.1-.84,1.2-1.26,5.63-2.52,0-1.4,7.89-2.8a8.4,8.4,0,0,1,4.22-1.12l1.69,0.84h0.28q0.49,0,.84-2h0.28l0.28,0.28V106l1.13-.84V103.5H99.13l-0.84.56H98v-0.28A61.13,61.13,0,0,1,99.13,92l-0.56-1.68,1.41-.56-1.13-2.24q0-2.31,3.1-3.65V83.3l-0.56-.56H100q-0.56,0-.56.84l-0.28.28H98.85l-0.28-.28V83.3a3.22,3.22,0,0,1,.84-2V80.22a5,5,0,0,1-1.13-3.37L98.85,76,100,76.57l0.28-.28V76q-1.13-2-1.69-7V68.72q0.42-3.37,1.69-3.37,0.84,0,.84-1.12-0.35-2-1.13-2l-0.56,1.12H98.57L98.29,62q0.21-3.93.84-3.93,1.48,2,2.82,2h0.28V59.74l-3.66-4.49L100,55V51.61l0.84-1.12V50.21l-1.69-3.93L100.26,44,100,40.11l0.84-8.41h-0.28a1.41,1.41,0,0,1-.84-1.12Q100.19,28,100.82,28h0.28l0.84,0.56h0.28a1.54,1.54,0,0,0,.84-1.68q-2.82,0-2.82-3.93V14.59q0-3.23-2.82-3.65l-0.28.28v0.56q2,2,2,3.09l-0.56.56H98q-2,0-3.1-3.37H93.78l-0.84.56H92.37q0-2.17-1.13-2.52h-2V9.82L90.12,9H90.4l3.38,1.12a2.74,2.74,0,0,1,2.82-2q3.1,0,5.63,3.37l1.13,0.28,3.94-3.65q0.56,0,.56,1.4h0.28q0.84,0,2-3.37h0.56ZM103.36,7l0.84,0.84V8.7l-0.56.56h-0.84l-0.28-.84Q102.86,7,103.36,7ZM86.18,12.62h0.56l0.56,0.56V14H87l-0.84-.84V12.62Zm11.55,3.93q1.69,0.56,1.69,1.12v0.56l-0.56.56H97.44l-0.28-2,0.28-.28h0.28Zm7.6,9.82v0.28l2.53,3.09,0.56-.56q0-1.68-2.25-2.8h-0.84Zm5.35,9.82v0.28l-0.28.28v0.84l0.28,0.84H110.4l-1.13-.84ZM100,69.28V70.4h0.84l0.84-.84q0-.56-0.84-0.56Zm5.63,10.94V80.5H107l1.41-.28V79.38h-2Zm0.56,8.13,0.28,0.28H107q1.48,0,1.69-.84V87.23H107Zm1.69,3.93-0.28.28V93.4l0.28,0.84h-0.28l-0.28.28L105,94V94.8l2.53,1.12,1.13-1.12V93.12Zm1.41,5.61a3.08,3.08,0,0,1,1.69,2.8h0.56V99q-0.35-2.8-1.13-2.8A1.5,1.5,0,0,0,109.27,97.89Zm0.84,5.61v0.84l0.56,0.56h1.13l0.84-.84v-1.12h-0.56A2.92,2.92,0,0,1,110.11,103.5Zm9,1.68h0.56l1.13,1.12-0.28.84H120l-0.84-.84v-1.12Zm-3.1,2h0.84l0.84,0.84v0.56h-1.13L116,108v-0.84ZM84.21,110v0.56h1.41V110H84.21Zm62.21-99.2-0.25,2H147a3.77,3.77,0,0,0-.59-2h0Zm0.1-.83,2.18-2.83V6l-0.56-.63L147,6.24h-0.28V5.33q0-1.75,7-1.75l4.51,0.84V2.66q2,0,3.94,2.66V6.24q-1.69,0-1.69.84V7.71l1.41,1.75a2,2,0,0,0-1.13,2.1v1.75h-0.56q-0.77-6.8-1.41-6.8l-1.13-.28h-1.13V6.52l2,2.38V9.47L158,10.1h-1.41v0.56l0.84,1.19v0.28l-0.84,3H156.3l-0.56-1.82h-0.28l0.28-.28V12.48l-0.56-.63q-4.22.7-4.22,3.3L154.33,16l0.28,1.19L154,21h-0.56l-0.56-1.75h-0.84l-0.28,2v0.63q0,0.56,1.69,1.19v0.28q0,0.56-2.25.91v0.56a2.05,2.05,0,0,0,1.69,1.47q0-1,2-1.47l0.28-1.47h0.56l0.28,2.1q0,2.66-3.1,2.66h-3.38l-0.56.56q0,0.49,3.66,1.47l0.84,0.91H154l1.69-.91L156,30.5v0.63q-2,1.61-2,2.95v0.28a2.53,2.53,0,0,0,2.25,1.54v0.28q-2,1.19-2,2.38h0.28a1.86,1.86,0,0,1,2,1.12v5a3.9,3.9,0,0,0,.84,2.38l-1.13,2.66a1.46,1.46,0,0,1,1.41,1.47l-1.41.63v0.28q0,1.19,5.07,1.19,1.27,0,3.1-1.75,3.73,0,16.12-6.66l-1.76-1.4-0.28-.84q7.89-6.24,7.89-19.28,0-9.19-5.07-9.19,0-1.26-5.91-2.95l-0.84-1.47h-0.28a7.57,7.57,0,0,1-4.79,2.95H169q-0.7-1.68-4.51-3.86l-0.84-1.19V6.24q0-.63,1.13-0.63a3.52,3.52,0,0,1,3.38-2.31q3.38,0,3.38,2l2-1.47H174q6.13,1.75,6.2,2.38,0,1.33,3.66,2.66a3.08,3.08,0,0,0,1.69,1.47l0.28-.28-0.28-.28V8.91l0.56-.63h0.28L187,12.13h0.56l1.41-.84q1.48,0,4.22,2.95h0.28q0.21-1.47.84-1.47t0.56,0.84a0.91,0.91,0,0,1-1.13.91l-0.28.28v0.35q1.13,4.42,1.69,4.42a3.56,3.56,0,0,0,2.25-1.19h0.28q0.49,0,1.41,1.75a0.78,0.78,0,0,1-.84.91l-0.28.28v0.35q3.38,0.63,3.38,3.51a12.94,12.94,0,0,0,2,5v0.63h-0.56q-1.69-3.58-2.25-3.58-0.84.28-.84,1.75v0.91l0.56,0.91-0.56,2.31v0.35a0.75,0.75,0,0,1,.84.84q-0.28,4.77-1.13,4.77l-0.56-.56v-3.3l-0.56-.56-0.56.56v3.58q0,2.66-1.69,3.23l-1.13-.28H194.6v1.47q0,1.4-2.82,3.58L191.5,48h-0.28L189,45.93h-1.41l1.13,3.3q0,1.61-2.25,2.95L185,51.89h-0.84v1.19q0,1.75-2.82,2.95a2.29,2.29,0,0,1-2.25,1.75l-3.94,3-0.28-.35h-0.56l-0.56.63L174,62.27q0,1.05-2.25,1.75l-0.28-.28V63.46a5.7,5.7,0,0,0,1.13-3.3V57.5l-0.56-.56h-0.28l-0.56.56,0.28,1.82-1.13,3.51v0.91l2.53,2.1a1.54,1.54,0,0,0,1.69,1.47q1.48,2.95,3.1,2.95l-0.28,1.19q0,2,6.2,2.95,0.49,3.3,3.1,3.3v0.56l-2.25,2.38v0.28l1.41,0.28v0.35L185,82.67a4.77,4.77,0,0,0,2,2.38h0.56q0.49-3.23,2.82-3.23l0.56,0.56v0.28q-2,0-2,.91l0.84,0.91,3.1-.91v0.28a7.32,7.32,0,0,1-2.25,3l0.84,3.23h0.84l0.28-1.19h0.56a8.31,8.31,0,0,0,2.25,5.68v0.28a1.07,1.07,0,0,0-1.13,1.19l0.84,0.56h0.28l1.13-.28,0.84,0.28v0.63l-0.56.84v0.35l1.13,2.31h0.28l1.13-.84h0.28v2.66q1.34,1.75,5.07,1.75H205q0.56,0,.84-1.75h0.28l1.41,1.47a2.54,2.54,0,0,1-2.25,1.47l-1.69-.28q-0.77,0-.84,1.47h-0.84q0-.91-1.41-0.91v2.38l-2-2.66h-0.28q-0.21,3.86-1.13,3.86h-0.28a4.37,4.37,0,0,0-2.53-1.19l-1.69.28-0.56-.56,0.28-.28v-1.54a1.52,1.52,0,0,1-1.69-1.75V102a8.71,8.71,0,0,1-2.53-5.89l-1.69-.63a5.73,5.73,0,0,0,1.13-2.66V92.49q0-.77-2.53-1.47-0.28-2.38-2.25-2.38V87.72q0-1.61-5.63-8.27-0.63-3.86-1.13-3.86l-1.41.28-0.28-.28V72.65H174l-0.84.56h-0.28q0-2-4.79-5,0-1.19-8.73-3.23l-0.84.28q0.21,4.77.56,4.77-0.21,2-1.69,2l-0.56.91v0.28q0,0.91,1.69.91V74.4q-3.38,2.38-3.38,3.58h1.13l0.28-.28a1.83,1.83,0,0,1,1.41,2v0.63l-0.84,1.19v0.56l0.28,0.28a6.3,6.3,0,0,1-2,3.58h-0.28l0.28-2.1q-1.13-2.66-2.82-2.66h-0.84l-1.41.35v0.84h2.25l-0.84,1.47v0.91l0.56,0.63h0.28l0.28-1.54h0.84l0.56,3L154,88.35h0.28l2.82-.63v0.35a6.13,6.13,0,0,0-.84,3.23,8.72,8.72,0,0,1,1.13,4.42v0.63l-0.56.56q0-.84-2.53-1.47a1.54,1.54,0,0,0-1.13.91v0.28q0.42,1,5.07,2.66l0.28,0.28v0.35l-1.69.56h-5.07v0.28q0.14,0.56,4.51,1.82,2.25,1.68,2.25,3.23l-1.41,1.47v1.82q0,3.44-1.69,4.14-2.25,0-11.48-4.84a34.63,34.63,0,0,0,.28-4.7l-0.28-.35h-0.56l-0.56.63v0.84l0.28,0.35-0.28.84h-0.28q-0.56,0-.84-1.75,0-2.1,3.1-2.1l0.28-.28v-0.28a5.37,5.37,0,0,0-3.1-.91v-0.56q0-.63.84-0.63l0.28-.28V98.66l-0.56-.91V97.47l1.57-.22q1.61-3.91,1-3.91V91.51q-1,0-1.41-1.75l0.56-6.52q0-2.95-2.25-2.95h-0.84v-2.1h-0.84q-1.48,0-1.69-.91a2.26,2.26,0,0,0,1.69-1.19h0.84V75l-0.28-1.19a5.28,5.28,0,0,1,1.41-2.66V70.75q-0.84,0-.84-0.56l3.31-2.87h-1.41q-2.46.7-4.15,1.12l-0.28-.35V67.81q5.28-3.37,5.28-4.35l-0.28-.35h-0.84l-0.28.35H142.5l0.28,1.47-0.56.56q-1.06,0-2.25-1.75V63.46l2.53-2.1q0-2.38,2.25-2.38l0.28-.28V57.78h-0.56A11.18,11.18,0,0,0,140.53,59l-0.84-.84H139.4q0-1.54,2-1.54V56l-2-2.1V53.64Q140.67,51,141.66,51V50.7l-1.41-3.58,1.69,1.19h0.56V48l-0.56-1.82V45.93L142.78,43V42.7h-2l-0.28-.91,0.28-.91h2V40.6a5.51,5.51,0,0,1-2.82-5q0-4.63-1.41-5.61h0.28a3.36,3.36,0,0,0,2.25,1.19q0.56,0,.56-0.91L140,27.84V27.28q0-.63.84-0.63V25.8L140,22.86l-0.84-.35V21.95l0.56-.91V19.84l-0.56-3.51,1.13-3V13H140l-1.13.91h-0.28L138,13.32V12.76q0-.63,2.53-0.91l0.56-.91V10.1L140,8.27,140.25,8l0.28,0.28h1.13q0.49,0,1.13-2,2,0,2-5.68L145.32,0l0.28,0.28-0.28,1.47V2.38q1.13,0,1.69,1.75V4.42q-0.56.56-.56,3l-0.56.84,0.28,0.35,0.28-.35h0.28l-0.21,1.64h0Zm-1.07-4.09q-0.26.42-.13,0.42l0.13-.42h0ZM167.85,6V6.52l0.84,1.19V8.27h-1.41V9.47h1.13a1.49,1.49,0,0,1,1.69,1.47h0.56V10.38A4.89,4.89,0,0,0,168.13,6h-0.28Zm-16.05.84-0.56.91V8q0,0.7,2.53,1.47L154,10.66h0.28l0.56-.56Q154.89,6.8,151.79,6.8ZM178,7.43V8.91l0.84,0.91H180V9.19l-1.41-1.75H178Zm-14.64,3.86h0.28q2.53,0.56,2.53,1.19h-0.28Q163.69,12.48,163.34,11.29Zm-17,4.34q-0.05.78-.2,1.84v0.63h0.28a4.26,4.26,0,0,0,2-3.86,18.78,18.78,0,0,1-2.06,1.39h0Zm-4.7-2.3a4.66,4.66,0,0,0,2.25,2.38h0.56l1.13-1.19V14.23h-1.69L143.06,13l-0.28-.28h-0.56Zm4.51,4.14v0.91h0.56l1.13-1.19-0.28-.28h-0.28Zm2.53,2.66L149,20.48h0.28a2.18,2.18,0,0,0,1.41-1.19V19h-0.84Zm-8.45-2.31,0.56,0.56h0.56l2.53-.56V17.18h-3.1Zm5.35,2.31v1.82a16.87,16.87,0,0,1,3.1,4.14H149V24q0-1.47-3.1-3.86H145.6Zm-4.79.91a5.92,5.92,0,0,0,1.69,4.14h0.28V24a12,12,0,0,1,1.13-4.7h-1.13Q140.81,20.48,140.81,21Zm5.44,0.47q-0.37,3.43-.37,5.14v0.91q-0.77,1.47,2-.56a0.91,0.91,0,0,1-1.13-.91V24.33l2-.35V23.42l-1.13-1.47q-0.78-.24-1.32-0.44h0Zm50.6,1.91V23.7q0.77,4.14,1.69,4.14h0.56V26.37a4.23,4.23,0,0,0-1.69-2.95h-0.56ZM186.08,29v0.91l0.84,0.91,0.56-.63V29.66L186.93,29h-0.84Zm-41,7.15h0.28l2.53-.28v0.28q0,1,2,1.75l0.28-.28V36.46q-2-2.66-2-3.86h-0.56Q145,34.57,145,36.18Zm10.7-3.3h0.84v0.28q0,0.7-1.41.91V33.52Zm-13.8,3v0.56l0.84,0.91h1.13V37A1.86,1.86,0,0,0,141.94,35.9ZM154,40v1.47l0.84,0.91,0.56-.63q0-1.54-.84-1.75H154Zm-4.79,2a3.3,3.3,0,0,0,1.69,2.1h0.84V42.42l-1.41-1.54A1.69,1.69,0,0,0,149.26,42.07Zm42.81-1.19v0.35q0.21,1.75.84,1.75l0.56-.56A2.57,2.57,0,0,0,192.07,40.88Zm4.51,3.3h0.28l0.28,0.91q-0.56,1.75-1.13,1.75h-0.28l-0.28-1.19A2.32,2.32,0,0,1,196.57,44.18Zm-42.24.56v0.63A2.88,2.88,0,0,0,156,48h0.28l0.56-.63a7.28,7.28,0,0,0-2.25-2.66h-0.28Zm26.47,7.15V52.8h1.13l1.13-1.19L182.49,51h-0.84Zm4.79,1.75h0.56l0.56,0.63v0.56h-0.56l-0.56-.56V53.64Zm-38.86,9.82h0.56q2-1.47,2-2.66H149Q147.15,60.8,146.73,63.46Zm4.22,1.75v0.63h1.41l0.56-.63V64.3h-1.13Zm3.66,0.91L154,67v0.35l0.84,0.84h0.28l0.56-.56V66.41ZM180,67.88l0.28,0.28-0.28.91-0.56-.56Zm1.69,2.1h0.56l0.28,1.47v0.28Q181.65,71.45,181.65,70Zm-44.14-.07h0.56l0.56,0.56v0.91h-0.28Q137.71,71.38,137.5,69.91Zm5.63,8.27v0.28a1.92,1.92,0,0,0,2,1.19V79.1l-0.84-.91h-1.13ZM142,81.76q0.84,0.28.84,1.75l-0.56,3.3h-0.56a2.69,2.69,0,0,0-1.13-2.38V84.15A2.54,2.54,0,0,1,142,81.76Zm9.5,11.29v1.54h0.56l0.56-.63V93.05l-0.56-.56Zm-8.94.56h0.28L144,94.8H143.7l-1.13-.91V93.61Zm8.1,14.3v1.19q2.53,3.23,4.22,3.23h0.28v-0.28l-0.56-.91a7.37,7.37,0,0,0,.56-3.23q0-2.38-.56-2.38l0.56-2.38h-1.41Zm-5.56-2.17v1.19l0.84,0.91h0.84v-0.91l-1.13-1.19h-0.56Zm8.38,1h0.28l0.56,0.56v1.54l-0.56.56H153.2l-0.84-.91v-0.56Zm-8.11,2.88,0.3-.28-0.28.28h0Zm-2.52,2.4v0.27h-0.28l0.28-.27h0Zm0.86-3.57,1.11,1.18h0.55l-2.52,2.4h0a4.66,4.66,0,0,1,.86-3.56h0Zm0,0,0,0a0.76,0.76,0,0,1,.72-0.81,6.7,6.7,0,0,0-.7.82h0Zm59.05,1.25V110l-1.41,1.82v-0.28Zm-56.54,2.88h0.84l0.28,1.54v0.56h-0.28l-0.84-.91v-1.19Zm75.38-101.8-0.25,2h0.84a3.77,3.77,0,0,0-.59-2h0Zm0.1-.83,2.18-2.83V6l-0.56-.63-1.13.91h-0.28V5.33q0-1.75,7-1.75l4.51,0.84V2.66q2,0,3.94,2.66V6.24q-1.69,0-1.69.84V7.71l1.41,1.75a2,2,0,0,0-1.13,2.1v1.75h-0.56q-0.77-6.8-1.41-6.8l-1.13-.28h-1.13V6.52l2,2.38V9.47l-0.56.63h-1.41v0.56l0.84,1.19v0.28l-0.84,3h-0.28l-0.56-1.82h-0.28l0.28-.28V12.48l-0.56-.63q-4.22.7-4.22,3.3L229.52,16l0.28,1.19L229.24,21h-0.56l-0.56-1.75h-0.84l-0.28,2v0.63q0,0.56,1.69,1.19v0.28q0,0.56-2.25.91v0.56a2.05,2.05,0,0,0,1.69,1.47q0-1,2-1.47l0.28-1.47h0.56l0.28,2.1q0,2.66-3.1,2.66h-3.38l-0.56.56q0,0.49,3.66,1.47l0.84,0.91h0.56l1.69-.91,0.28,0.28v0.63q-2,1.61-2,2.95v0.28a2.53,2.53,0,0,0,2.25,1.54v0.28q-2,1.19-2,2.38h0.28a1.86,1.86,0,0,1,2,1.12v5a3.9,3.9,0,0,0,.84,2.38l-1.13,2.66a1.46,1.46,0,0,1,1.41,1.47l-1.41.63v0.28q0,1.19,5.07,1.19,1.27,0,3.1-1.75,3.73,0,16.12-6.66L254,43.55l-0.28-.84q7.89-6.24,7.89-19.28,0-9.19-5.07-9.19,0-1.26-5.91-2.95L249.8,9.82h-0.28a7.57,7.57,0,0,1-4.79,2.95h-0.56q-0.7-1.68-4.51-3.86l-0.84-1.19V6.24q0-.63,1.13-0.63a3.52,3.52,0,0,1,3.38-2.31q3.38,0,3.38,2l2-1.47h0.56q6.13,1.75,6.2,2.38,0,1.33,3.66,2.66a3.08,3.08,0,0,0,1.69,1.47l0.28-.28-0.28-.28V8.91l0.56-.63h0.28l0.56,3.86h0.56l1.41-.84q1.48,0,4.22,2.95h0.28q0.21-1.47.84-1.47t0.56,0.84a0.91,0.91,0,0,1-1.13.91l-0.28.28v0.35q1.13,4.42,1.69,4.42a3.56,3.56,0,0,0,2.25-1.19h0.28q0.49,0,1.41,1.75a0.78,0.78,0,0,1-.84.91l-0.28.28v0.35q3.38,0.63,3.38,3.51a12.94,12.94,0,0,0,2,5v0.63H278q-1.69-3.58-2.25-3.58-0.84.28-.84,1.75v0.91l0.56,0.91-0.56,2.31v0.35a0.75,0.75,0,0,1,.84.84q-0.28,4.77-1.13,4.77L274,38.57v-3.3l-0.56-.56-0.56.56v3.58q0,2.66-1.69,3.23l-1.13-.28h-0.28v1.47q0,1.4-2.82,3.58L266.7,48h-0.28l-2.25-2.1h-1.41l1.13,3.3q0,1.61-2.25,2.95l-1.41-.28h-0.84v1.19q0,1.75-2.82,2.95a2.29,2.29,0,0,1-2.25,1.75l-3.94,3-0.28-.35h-0.56l-0.56.63,0.28,1.19q0,1.05-2.25,1.75l-0.28-.28V63.46a5.7,5.7,0,0,0,1.13-3.3V57.5l-0.56-.56H247l-0.56.56,0.28,1.82-1.13,3.51v0.91l2.53,2.1a1.54,1.54,0,0,0,1.69,1.47q1.48,2.95,3.1,2.95l-0.28,1.19q0,2,6.2,2.95,0.49,3.3,3.1,3.3v0.56l-2.25,2.38v0.28l1.41,0.28v0.35l-0.84,1.12a4.77,4.77,0,0,0,2,2.38h0.56q0.49-3.23,2.82-3.23l0.56,0.56v0.28q-2,0-2,.91L265,84.5l3.1-.91v0.28a7.32,7.32,0,0,1-2.25,3l0.84,3.23h0.84l0.28-1.19h0.56a8.31,8.31,0,0,0,2.25,5.68v0.28a1.07,1.07,0,0,0-1.13,1.19l0.84,0.56h0.28l1.13-.28,0.84,0.28v0.63L272,98.1v0.35l1.13,2.31h0.28l1.13-.84h0.28v2.66q1.34,1.75,5.07,1.75h0.28q0.56,0,.84-1.75h0.28l1.41,1.47a2.54,2.54,0,0,1-2.25,1.47l-1.69-.28q-0.77,0-.84,1.47h-0.84q0-.91-1.41-0.91v2.38l-2-2.66h-0.28q-0.21,3.86-1.13,3.86H272a4.37,4.37,0,0,0-2.53-1.19l-1.69.28-0.56-.56,0.28-.28v-1.54a1.52,1.52,0,0,1-1.69-1.75V102a8.71,8.71,0,0,1-2.53-5.89l-1.69-.63a5.73,5.73,0,0,0,1.13-2.66V92.49q0-.77-2.53-1.47-0.28-2.38-2.25-2.38V87.72q0-1.61-5.63-8.27-0.63-3.86-1.13-3.86l-1.41.28-0.28-.28V72.65h-0.28l-0.84.56h-0.28q0-2-4.79-5,0-1.19-8.73-3.23l-0.84.28Q234,70,234.31,70q-0.21,2-1.69,2l-0.56.91v0.28q0,0.91,1.69.91V74.4q-3.38,2.38-3.38,3.58h1.13l0.28-.28a1.83,1.83,0,0,1,1.41,2v0.63l-0.84,1.19v0.56l0.28,0.28a6.3,6.3,0,0,1-2,3.58h-0.28l0.28-2.1q-1.13-2.66-2.82-2.66H227l-1.41.35v0.84h2.25L227,83.87v0.91l0.56,0.63h0.28l0.28-1.54H229l0.56,3-0.28,1.47h0.28l2.82-.63v0.35a6.13,6.13,0,0,0-.84,3.23,8.72,8.72,0,0,1,1.13,4.42v0.63l-0.56.56q0-.84-2.53-1.47a1.54,1.54,0,0,0-1.13.91v0.28q0.42,1,5.07,2.66l0.28,0.28v0.35l-1.69.56H227v0.28q0.14,0.56,4.51,1.82,2.25,1.68,2.25,3.23l-1.41,1.47v1.82q0,3.44-1.69,4.14-2.25,0-11.48-4.84a34.63,34.63,0,0,0,.28-4.7l-0.28-.35h-0.56L218,104v0.84l0.28,0.35L218,106h-0.28q-0.56,0-.84-1.75,0-2.1,3.1-2.1l0.28-.28v-0.28a5.37,5.37,0,0,0-3.1-.91v-0.56q0-.63.84-0.63l0.28-.28V98.66l-0.56-.91V97.47l1.57-.22q1.61-3.91,1-3.91V91.51q-1,0-1.41-1.75l0.56-6.52q0-2.95-2.25-2.95h-0.84v-2.1h-0.84q-1.48,0-1.69-.91a2.26,2.26,0,0,0,1.69-1.19h0.84V75l-0.28-1.19a5.28,5.28,0,0,1,1.41-2.66V70.75q-0.84,0-.84-0.56l3.31-2.87h-1.41q-2.46.7-4.15,1.12l-0.28-.35V67.81q5.28-3.37,5.28-4.35l-0.28-.35h-0.84l-0.28.35h-0.28L218,64.93l-0.56.56q-1.06,0-2.25-1.75V63.46l2.53-2.1q0-2.38,2.25-2.38l0.28-.28V57.78h-0.56A11.18,11.18,0,0,0,215.72,59l-0.84-.84H214.6q0-1.54,2-1.54V56l-2-2.1V53.64Q215.86,51,216.85,51V50.7l-1.41-3.58,1.69,1.19h0.56V48l-0.56-1.82V45.93L218,43V42.7h-2l-0.28-.91,0.28-.91h2V40.6a5.51,5.51,0,0,1-2.82-5q0-4.63-1.41-5.61H214a3.36,3.36,0,0,0,2.25,1.19q0.56,0,.56-0.91l-1.69-2.38V27.28q0-.63.84-0.63V25.8l-0.84-2.95-0.84-.35V21.95l0.56-.91V19.84l-0.56-3.51,1.13-3V13h-0.28L214,14h-0.28l-0.56-.63V12.76q0-.63,2.53-0.91l0.56-.91V10.1l-1.13-1.82L215.44,8l0.28,0.28h1.13q0.49,0,1.13-2,2,0,2-5.68L220.51,0l0.28,0.28-0.28,1.47V2.38q1.13,0,1.69,1.75V4.42q-0.56.56-.56,3l-0.56.84,0.28,0.35,0.28-.35h0.28l-0.21,1.64h0Zm-1.07-4.09q-0.26.42-.13,0.42l0.13-.42h0ZM243,6V6.52l0.84,1.19V8.27h-1.41V9.47h1.13a1.49,1.49,0,0,1,1.69,1.47h0.56V10.38A4.89,4.89,0,0,0,243.32,6H243ZM227,6.8l-0.56.91V8q0,0.7,2.53,1.47l0.28,1.19h0.28l0.56-.56Q230.09,6.8,227,6.8Zm26.19,0.63V8.91L254,9.82h1.13V9.19l-1.41-1.75h-0.56Zm-14.64,3.86h0.28q2.53,0.56,2.53,1.19h-0.28Q238.89,12.48,238.53,11.29Zm-17,4.34q-0.05.78-.2,1.84v0.63h0.28a4.26,4.26,0,0,0,2-3.86,18.78,18.78,0,0,1-2.06,1.39h0Zm-4.7-2.3a4.66,4.66,0,0,0,2.25,2.38h0.56l1.13-1.19V14.23H219.1L218.26,13,218,12.76h-0.56Zm4.51,4.14v0.91h0.56L223,17.18l-0.28-.28h-0.28Zm2.53,2.66,0.28,0.35h0.28a2.18,2.18,0,0,0,1.41-1.19V19H225Zm-8.45-2.31L216,18.37h0.56l2.53-.56V17.18H216Zm5.35,2.31v1.82a16.87,16.87,0,0,1,3.1,4.14h0.28V24q0-1.47-3.1-3.86h-0.28ZM216,21a5.92,5.92,0,0,0,1.69,4.14H218V24a12,12,0,0,1,1.13-4.7H218Q216,20.48,216,21Zm5.44,0.47q-0.37,3.43-.37,5.14v0.91Q220.3,29,223,27a0.91,0.91,0,0,1-1.13-.91V24.33l2-.35V23.42l-1.13-1.47q-0.78-.24-1.32-0.44h0ZM272,23.42V23.7q0.77,4.14,1.69,4.14h0.56V26.37a4.23,4.23,0,0,0-1.69-2.95H272ZM261.28,29v0.91l0.84,0.91,0.56-.63V29.66L262.12,29h-0.84Zm-41,7.15h0.28L223,35.9v0.28q0,1,2,1.75l0.28-.28V36.46q-2-2.66-2-3.86h-0.56Q220.23,34.57,220.23,36.18Zm10.7-3.3h0.84v0.28q0,0.7-1.41.91V33.52Zm-13.8,3v0.56L218,37.38h1.13V37A1.86,1.86,0,0,0,217.13,35.9ZM229.24,40v1.47l0.84,0.91,0.56-.63q0-1.54-.84-1.75h-0.56Zm-4.79,2a3.3,3.3,0,0,0,1.69,2.1H227V42.42l-1.41-1.54A1.69,1.69,0,0,0,224.45,42.07Zm42.81-1.19v0.35q0.21,1.75.84,1.75l0.56-.56A2.57,2.57,0,0,0,267.26,40.88Zm4.51,3.3H272l0.28,0.91q-0.56,1.75-1.13,1.75h-0.28l-0.28-1.19A2.32,2.32,0,0,1,271.77,44.18Zm-42.24.56v0.63A2.88,2.88,0,0,0,231.21,48h0.28l0.56-.63a7.28,7.28,0,0,0-2.25-2.66h-0.28ZM256,51.89V52.8h1.13l1.13-1.19L257.68,51h-0.84Zm4.79,1.75h0.56l0.56,0.63v0.56h-0.56l-0.56-.56V53.64Zm-38.86,9.82h0.56q2-1.47,2-2.66h-0.28Q222.34,60.8,221.92,63.46Zm4.22,1.75v0.63h1.41l0.56-.63V64.3H227Zm3.66,0.91-0.56.84v0.35l0.84,0.84h0.28l0.56-.56V66.41Zm25.35,1.75,0.28,0.28-0.28.91-0.56-.56Zm1.69,2.1h0.56l0.28,1.47v0.28Q256.84,71.45,256.84,70Zm-44.14-.07h0.56l0.56,0.56v0.91h-0.28Q212.91,71.38,212.7,69.91Zm5.63,8.27v0.28a1.92,1.92,0,0,0,2,1.19V79.1l-0.84-.91h-1.13Zm-1.13,3.58Q218,82,218,83.52l-0.56,3.3h-0.56a2.69,2.69,0,0,0-1.13-2.38V84.15A2.54,2.54,0,0,1,217.2,81.76Zm9.5,11.29v1.54h0.56l0.56-.63V93.05l-0.56-.56Zm-8.94.56H218l1.13,1.19h-0.28l-1.13-.91V93.61Zm8.1,14.3v1.19q2.53,3.23,4.22,3.23h0.28v-0.28l-0.56-.91a7.37,7.37,0,0,0,.56-3.23q0-2.38-.56-2.38l0.56-2.38H229Zm-5.56-2.17v1.19l0.84,0.91H222v-0.91l-1.13-1.19H220.3Zm8.38,1H229l0.56,0.56v1.54l-0.56.56H228.4l-0.84-.91v-0.56Zm-8.11,2.88,0.3-.28-0.28.28h0ZM218,112v0.27h-0.28L218,112h0Zm0.86-3.57L220,109.6h0.55L218,112h0a4.66,4.66,0,0,1,.86-3.56h0Zm0,0,0,0a0.76,0.76,0,0,1,.72-0.81,6.7,6.7,0,0,0-.7.82h0ZM278,109.67V110l-1.41,1.82v-0.28Zm-56.54,2.88h0.84l0.28,1.54v0.56h-0.28l-0.84-.91v-1.19ZM348.93,0h0.84q0,2,3.66,2L354,2.88V3.16h-3.1l-0.56.63V4.35l0.28,1.75-1.41,1.75v1.4l2,2.31-1.13.91v0.28a1.65,1.65,0,0,0,1.41,1.12v0.28q-2,1.54-2,2.95l0.28,0.28a1.2,1.2,0,0,1-1.13,1.12v0.35a3.23,3.23,0,0,0,.84,2v0.63q-1.2,0-2,2.88-0.84,0-.84,2.88a8.63,8.63,0,0,0-2.82,6.38q-0.56,5.82-3.94,5.82v1.12a3.85,3.85,0,0,1,1.13,2h-0.28q-1.62,0-5.07,5.82-2,1-2,1.47v0.28l2,0.28V51l-2,1.75q0,1.54-2.53,2.31l-0.28-.28H329.5q-0.84.28-.84,1.75v1.12h0.28l0.84-.56h0.28l0.84,0.56q0.56,0,.56-0.84l0.28-.28h0.56v0.56Q331.75,60,329.5,60l-2.25-.28V60l0.56,2q-0.92,0-1.69,2.31l-0.56.56v0.28l1.13,1.47-0.28.91h-2l-0.56.56v1.75l0.84,0.84H325l0.84-.56h0.56a8.29,8.29,0,0,1-2,4.07v0.28l1.41,0.28V75l-1.41,2,0.28,0.28,0.84-.28,0.84,0.28v0.28q0,0.7-3.38,1.19a1.51,1.51,0,0,0,1.69,1.12l1.41-.28Q327.53,80,327.53,82a3.81,3.81,0,0,1-1.69,3.51H325l0.56-.91V84L325,83.45h-0.56l-0.56.56v0.56l0.56,0.91h-0.56l-2.25-.63h-0.56a2,2,0,0,0-1.13,2v0.28q0,0.63,1.41.63l0.28,0.84-0.28,3.51,2.25,3.16v0.84H323q-0.28-1.68-1.41-1.68l-2.25,2-2-2.31h-0.56v0.56a5.63,5.63,0,0,0,5.07,3.16l0.28,0.28V98.8a2.58,2.58,0,0,1-2.53,1.4q2.53,1.68,2.53,3.23h1.41a3.56,3.56,0,0,0,2.25-1.19h0.56v0.56q0,0.49-3.66,2.38v0.56a3.1,3.1,0,0,1,1.13,2l1.13,0.28q-1.06,6.94-3.94,6.94h-0.84q-2.25,0-2.25-2v-0.28l-2,.28q0-2.66-5.35-3.79l-0.84-2,1.41-2.59h-0.28q-2-.14-2-0.84l0.28-.28v-0.28l0.28,0.28h0.28l0.84-.91-0.28-.84,0.56-1.75a2.38,2.38,0,0,1-2-1.4V97.89l2.82-2,0.56-2-0.56-.56a2.32,2.32,0,0,1-1.13,1.47h-0.28l-0.28-.91q1.48-5.19,4.22-5.19h1.41V88.35q0-1-3.94-1.19l-0.56-.84V85.76l1.13-1.47q-2.53-3.23-2.53-4.91h0.28q0.56,0,.56,1.12l0.28,0.35h0.84V77.63l-0.56-5.19h-0.56l-0.28,1.75-2-2.66h-1.13l-2,.63L305,71.8l0.28-2V68.65l-0.84-4.35-2.25,2.31H301.9V66.05l2-4.35q3.66-.28,3.66-1.47V59.11l-0.84-.91h-2v0.91q1.13,0,1.13.56V60l-2.82.56-0.84-.28,0.28-2.59q-1.69-2-1.69-6.1l0.84-2.87q-0.35-2.31-1.13-2.31l-0.28.28v4.63q0,0.56-1.69.56,0,1.19-.84,1.19h-0.56V51.54l-1.41-1.68,0.28-.91h0.84V50.7h0.56V51q1.55,0,2-5.47l-0.84-.63h-1.41l-1.13.91h-0.56V44.6A6.41,6.41,0,0,0,298,40.53h1.69V40.25q-1.41-1.4-1.41-5.47h-0.56q0,1.54-2.53,3.16-1.13,0-1.13-2.31h-0.84q-1.48,0-1.69-.84h1.13V34.15q0-2.1-3.1-2.88V30.15h0.56a3.25,3.25,0,0,0,2,.84h0.28V30.15q-3.1-3.79-3.1-6.66-1.41,0-1.41-1.75V19.14h-1.13l-1.13.28q-1.41-.42-1.41-0.91V18.23q0.28-1.05,5.35-2.59a3.79,3.79,0,0,1,3.1-1.12A4.6,4.6,0,0,1,297.39,18q6.69,14,10.7,17.11,5.49,14.59,6.76,15.36h0.28q1.13,0,1.13-2.59l0.28-.35h0.56q0.28,2.38,1.13,2.38h0.56v-2l-0.28-1.75L319.92,42q1.41,0,2,3.16l0.28,0.35h0.28l0.28-.35V44L323,39.13h0.28q0.56,0,.56,1.12l0.28,0.28h0.28a38.43,38.43,0,0,0,1.69-7.78q1.69,0,1.69-3.51a3.71,3.71,0,0,0,1.13-2.59h0.56q0.84,0.07,1.69,2.88h0.56l0.84-1.68V27.49q0-1.89-2.82-2.59V24.61l0.56-.56,1.41,0.28,0.28-.84-0.28-.35V22.86q0-2.52,5.07-3.16V19.42q-0.14-.91-2-0.91V18.23l0.84-1.12q-2.25-.77-2.25-1.19V15.64l0.84-.28L336,15.64h0.28l0.56-.56L336,12.48h0.28l1.41,1.12h0.56q1.13-.28,1.13-2.87l-0.56-1.19h0.28l2.25,0.28v-2l3.38,0.84q4.22-2.59,4.22-3.51l-0.28-4ZM346.4,12.06v0.56L347,13.18h0.56l0.56-.56V12.06l-0.56-.56H347Zm5.49-3.93h0.84L353,9l-0.28.84h-0.28L351.61,9ZM343,12.62V12.9q0.35,1.68.84,1.68l-0.28.28V16h0.84l0.84-.84V14.87Q345,12.62,343,12.62Zm4.22,2.52,0.84-.84h0.84V16l0.84,1.4v0.28h-0.28a2.36,2.36,0,0,1-2.25-1.4V15.15ZM289.51,25v0.28l1.41,0.28q1.48,0,1.69-.84V24.12h-0.84Q289.72,24.12,289.51,25Zm43.65,2v0.56L333.72,28h2V27.77l-0.84-.84h-1.69Zm-39.43,8.41,1.13-1.12h0.56v1.12l-0.84.84h-0.84V35.34ZM341.89,37l0.56,0.56v0.84l-0.28.28-0.56-.56V37.3ZM297.11,41l0.28,0.28v0.56q-1.48,2.52-3.1,2.52H294q-0.7,0-1.13-2l0.28-.28h0.56q0.14,1.12.84,1.12h0.56Q295.42,41,297.11,41Zm6.48,10.38v1.4H305l0.56-.56V51.89L305,51.33h-1.41ZM318.23,55v1.4h0.56V55h-0.56Zm0,9.54v0.84h0.56l1.13-1.12-0.56-.56h-0.28Zm-5.35,18v0.28l2.53,2V85h0.28l0.56-.56V84.15q0-1.33-2.25-2.52l0.84-3.37L314.57,78H314Q313.24,78,312.88,82.46Zm5.35,2.8,0.28,0.28v0.28a11.06,11.06,0,0,1,4.22-2V82.18l-0.56-.56h-0.56Q320.06,82.32,318.23,85.27Zm6.48,2.8q1.69,0.28,1.69.84V89.2h-2.25v1.12h-0.28q-0.63,0-.84-1.4Zm1.41,4.77v0.84l-0.84.28-1.13-.84Zm-10.42,12.9H316a1.49,1.49,0,0,0,1.69-1.68h-0.28A1.49,1.49,0,0,0,315.7,105.74Zm-2.25-1.12-0.28.28v1.4l0.28,1.4h0.84v-0.84Q314.29,104.76,313.45,104.62Zm-2.82,2.8v0.84h0.84l0.84-.84v-0.56h-1.13Zm10.7,2.24,0.28,2.52h0.56q0.7,0,1.13-2.52l-0.84-.84v-0.28A1.52,1.52,0,0,0,321.33,109.67Z"/></svg>